<?xml version="1.0" encoding="utf-8"?>
<!-- Generator: Adobe Illustrator 24.3.0, SVG Export Plug-In . SVG Version: 6.00 Build 0)  -->
<svg version="1.1" id="Capa_1" xmlns="http://www.w3.org/2000/svg" xmlns:xlink="http://www.w3.org/1999/xlink" x="0px" y="0px"
	 viewBox="0 0 131.94 115.28" style="enable-background:new 0 0 131.94 115.28;" xml:space="preserve">
<g>
	<path d="M72.2,19.28c0.74,0.64,1.59,1.01,2.57,1.11l0.6-0.71h2.17l-1.66,3.07c0.1,1.54,0.35,3.27,0.76,5.19l-0.76,1.86l-0.91,0.71
		l0.71,1.36l-4.43,9.17l-1.21,1.76c-0.13,0.2-0.69,0.6-1.66,1.21l-2.77,6.09c-0.97,2.01-2.64,3.85-4.99,5.49l-0.4,1.81l-1.06,0.86
		c-0.4,0.34-0.69,0.71-0.86,1.11l-0.65,1.56l-0.81,0.3c-0.24,0.07-0.82,0.65-1.76,1.76h-0.96l-4.94,6.09l-0.4,1.21l-1.06,0.71
		c-0.34,0.2-0.84,0.85-1.51,1.94c-0.67,1.09-1.23,2.07-1.66,2.95l-0.86,0.5c-0.27,0.13-0.71,0.69-1.31,1.66v1.86l1.46,1.66
		l-2.06,2.07l-1.66,0.2l-0.96,0.91l-2.87,1.96l-0.4,1.16l-2.37,1.41v0.65l-1.66,0.5l-1.36-0.96l-0.71-1.61l0.71-4.43l0.96-1.26
		l-0.5-0.96c-0.77-0.6-1.21-1.01-1.31-1.21l-0.4-0.65c-0.1-0.27-0.22-1.26-0.35-2.97l0.6-0.91l-1.36-0.96v-2.37l-0.5-3.48l1.26-0.2
		l0.2-1.96l-0.76-3.22V62.3l-0.71-0.2v-4.43l-1.36-1.46l0.2-1.16c0.17-0.27,0.35-0.89,0.55-1.86l-1.06-1.61
		c0.23-0.71,0.4-1.65,0.5-2.82l-1.61-0.71l-0.76-1.46h-0.91l0.2-1.51v-1.26l-0.6-0.2l0.4-0.71l-0.71-1.86l0.5-1.66l-0.5-0.71
		l1.21-1.86l-1.21-0.4l0.3-1.66l-0.76-0.71h-1.61l-0.2,2.37l-1.46,0.4H17.6l-0.71,0.91l-3.53,0.5l-2.17-0.3l-0.6-0.91l-0.71-0.2
		l0.4-0.96l-0.4-1.81l1.61-1.86h0.45l1.61-1.26l4.78-2.27l0.91-1.26l2.77-0.4l0.45-0.71l2.87-0.96l4.63-2.37l0.96-0.91l1.81-0.2
		c1.24,0.97,1.96,1.66,2.17,2.06c-0.13,0.77-0.54,1.7-1.21,2.77l0.5,2.37l-0.5,1.16l0.5,3.07l-0.5,0.96l0.3,4.23l-1.26,1.81
		l0.96,1.16l1.21,4.73l-0.5,0.2l-0.2,2.17l1.16,1.16v2.37l0.3,0.2l-0.3,1.86l2.37,2.77l-0.55,1.66l2.17,3.73l0.96,3.58l-0.2,3.22
		l0.4,1.21h0.71l1.46-1.21l0.2-0.6l1.16,0.2l1.21-0.96l0.6-1.41l1.46-1.66c0.77-1.24,1.33-2.03,1.66-2.37l0.91-0.65l2.82-3.78
		l1.86-0.96l2.57-4.84l1.61-1.46l0.96-1.86l2.37-2.77v-0.71h1.46l0.6-0.76l0.5-4.94l0.76-1.66c0.67-0.67,1.21-2.15,1.61-4.43h0.45
		c0.2-1.24,0.37-1.93,0.5-2.06l-0.5-1.41l-0.96-0.15c-0.27-0.03-1.06-0.54-2.37-1.51l-0.4-1.86l0.91-1.66l0.76-0.2l2.06-2.57
		l0.91-0.2l0.71-1.26l1.46-0.4L72.2,19.28z"/>
</g>
<g>
	<path d="M111.37,14.32l1.36,1.08l2.1-0.23l2.32,2.66v1.02l1.42,1.3l0.79,2.66l-0.34,1.64h0.34l-0.79,8.89l-1.42,1.53l-2.32,1.13
		l-2.66,3.4l-2.32,0.57l-2.1,2.1l-2.89-1.42l-0.79-2.1l1.25-1.47l-0.79-1.87l1.36-2.66c-0.23-1.59-0.49-2.47-0.79-2.66l-2.89,0.34
		l-2.1-0.79l-3.46,0.79l0.34,1.3l-2.44,2.04h-1.08l-10.99,6.85l-1.87,1.87l-1.42,0.23l-0.45,1.08l-2.89,0.79l0.23,0.57l-2.1,0.79
		l-4.76,3.63l-0.79,0.79l1.13,0.74c0.34,0.23,0.85,0.87,1.53,1.93l1.3-0.79l0.79,1.02l2.1-0.79l1.59,0.79l2.95-0.23l9.12,0.23
		l0.85,1.08h2.44l1.87,1.36l3.34-1.13h1.25l1.19,0.79h1.53l1.02,0.85h1.64l0.79,0.79l0.91,0.17c0.26,0.04,0.81,0.42,1.64,1.13h1.02
		c0.64-0.38,1.38-0.66,2.21-0.85l1.53,1.42l0.79,1.47l4.53,2.95l4.42,3.91l-1.02,1.87l1.81,1.64l-1.25,3.91l-0.34,3.74l-1.19,1.93
		c-0.38,0.64-0.83,1.74-1.36,3.29l-2.44,1.3l-0.51,1.36l-9.74,6.63l-1.81-0.34l-0.23,1.02l-10.59,3.51l-1.59,1.25h-3.17l-0.79,0.79
		h-1.64l-0.68,0.85l-1.64-0.57l-4.53,1.59l-0.23-0.23l-2.1,0.23l-3.68,0.85L66.89,101L64,101.85L60.32,101l-0.74-0.06l-0.74-0.06
		l-0.62-0.06c-0.15-0.04-0.52-0.25-1.1-0.62c-0.59-0.38-1.1-0.72-1.56-1.02l-2.1-2.95l0.23-3.91l1.02-0.23l1.08-1.08l1.59-0.79
		c0.64-0.79,1.53-1.57,2.66-2.32h6.06v1.87l-0.23,0.68l0.79,0.79l-1.87,1.76c-0.23,0.23-0.57,0.89-1.02,1.98l0.45,1.02l2.89,1.3
		l0.85-1.3l2.1-0.45l2.89,0.68l3.46,0.34l2.1-1.02h1.87l2.55-0.57l1.02-0.57h2.1l1.42-0.28l4.87-1.93l1.59-0.34l1.25-0.74
		c0.34-0.23,1.4-0.49,3.17-0.79l0.85-0.79l0.79,0.23l4.76-2.66l1.25-2.61l2.44-0.68l-0.11-1.47l0.96-1.3l-0.45-0.45l1.25-3.23
		l-0.23-1.3l0.68-1.87l-1.36-2.66l0.57-2.1l-1.42-3.12l-1.36-0.57c-0.53-1.17-1.15-2.06-1.87-2.66l-2.89,0.57l-0.91-2.1
		c-0.11-0.23-0.59-0.7-1.42-1.42C99,60,98.03,59.66,96.98,59.13L95.11,61l-0.79-0.85l-2.95-0.68l-1.59-1.64l-0.85,0.85l-1.47-0.57
		l-1.08,1.02l-2.44-1.02l-1.02,1.59l-2.55-1.25l-0.34,1.25h-2.1l-0.45-0.79l-2.44-0.45l-2.1,1.02l-2.49-0.28
		c-0.26-0.04-0.94-0.4-2.04-1.08l-1.3,0.57l-1.02-0.57l-0.23,1.02l-3.23,0.34l-0.28-0.57l-1.25,0.23l-2.1-1.87l-0.57-1.42
		c-0.15-0.45-0.59-1.02-1.3-1.7c0.91-0.72,1.68-1.42,2.32-2.1h0.57l1.08-1.87h1.02l1.3-1.47l2.89-1.87l2.89-2.66l1.64-1.08l2.1-0.79
		l1.87-1.87l1.59-0.79l1.76-1.53l2.66-1.59l2.44-2.66l2.78-1.53c0.45-0.45,1.08-0.81,1.87-1.08l0.34-0.79l3.4-2.44h1.02l1.42-1.76
		c1.17-0.6,2.13-1.21,2.89-1.81l0.23-0.85l1.25-0.57l0.23-0.45c1.74-1.28,3.17-2.45,4.31-3.51h0.45v-0.45h0.85l0.23-0.79l2.44-0.79
		L111.37,14.32z"/>
</g>
</svg>
